<svg width="50" height="50" viewBox="0 0 50 50" fill="none" xmlns="http://www.w3.org/2000/svg">
<path fill-rule="evenodd" clip-rule="evenodd" d="M25 50C38.8071 50 50 38.8071 50 25C50 11.1929 38.8071 0 25 0C11.1929 0 0 11.1929 0 25C0 38.8071 11.1929 50 25 50Z" fill="#333333"/>
<path fill-rule="evenodd" clip-rule="evenodd" d="M25 27.8846L39.4231 15.3846H10.5769L25 27.8846ZM21.1043 26.5009L25 29.6985L28.8347 26.5009L39.4231 35.5769H10.5769L21.1043 26.5009ZM9.61539 34.6154V16.3462L20.1923 25.4808L9.61539 34.6154ZM40.3846 34.6154V16.3462L29.8077 25.4808L40.3846 34.6154Z" fill="white"/>
</svg>
