<svg width="50" height="50" viewBox="0 0 50 50" fill="none" xmlns="http://www.w3.org/2000/svg">
<circle cx="25" cy="25" r="25" fill="white"/>
<path fill-rule="evenodd" clip-rule="evenodd" d="M14.6192 25.4733C14.5742 25.4733 15.1125 26.6125 15.1275 26.6125C16.3025 28.7092 18.5675 30.0125 22.3883 30.3742C21.8433 30.7808 21.1883 31.5525 21.0975 32.4442C20.4117 32.88 19.0325 33.0242 17.9608 32.6917C16.4583 32.2258 15.8833 29.3033 13.6342 29.72C13.1475 29.8092 13.2442 30.125 13.665 30.3942C14.3508 30.83 14.9958 31.3758 15.4933 32.5367C15.8758 33.4283 16.6792 35.0208 19.2208 35.0208C20.2292 35.0208 20.9358 34.9017 20.9358 34.9017C20.9358 34.9017 20.955 37.1775 20.955 38.0625C20.955 39.0833 19.5533 39.3708 19.5533 39.8617C19.5533 40.0558 20.0175 40.0742 20.39 40.0742C21.1267 40.0742 22.6592 39.47 22.6592 38.4092C22.6592 37.5667 22.6733 34.7342 22.6733 34.2375C22.6733 33.1542 23.2642 32.8108 23.2642 32.8108C23.2642 32.8108 23.3375 38.5942 23.1233 39.3708C22.8717 40.2825 22.4175 40.1533 22.4175 40.56C22.4175 41.165 24.2625 40.7092 24.8742 39.38C25.3467 38.3475 25.14 32.6717 25.14 32.6717L25.6442 32.6617C25.6442 32.6617 25.6725 35.2592 25.655 36.4467C25.6375 37.6767 25.5525 39.2317 26.2958 39.965C26.7842 40.4475 28.3658 41.2933 28.3658 40.52C28.3658 40.0708 27.4992 39.7017 27.4992 38.4858V32.89C28.1917 32.89 28.0875 34.73 28.0875 34.73L28.1383 38.1492C28.1383 38.1492 27.985 39.3942 29.5092 39.915C30.0467 40.1008 31.1967 40.1508 31.2508 39.84C31.305 39.5292 29.8658 39.0667 29.8525 38.1033C29.8442 37.5142 29.8792 37.1708 29.8792 34.6142C29.8792 32.0575 29.53 31.1125 28.3125 30.3592C32.0692 29.98 34.395 29.0667 35.5275 26.6208C35.6158 26.6233 35.99 25.4783 35.9408 25.4783C36.195 24.555 36.3325 23.4625 36.3592 22.1692C36.3525 18.6608 34.6442 17.42 34.3167 16.8375C34.8 14.1817 34.235 12.9733 33.9733 12.5583C33.005 12.22 30.6058 13.4292 29.2942 14.2808C27.1575 13.6667 22.6392 13.7258 20.945 14.4392C17.8192 12.24 16.165 12.5767 16.165 12.5767C16.165 12.5767 15.0958 14.4592 15.8825 17.2142C14.8542 18.5025 14.0875 19.4142 14.0875 21.83C14.0883 23.1917 14.2517 24.41 14.6192 25.4733ZM25 50C11.1933 50 0 38.8067 0 25C0 11.1925 11.1933 0 25 0C38.8067 0 50 11.1925 50 25C50 38.8067 38.8067 50 25 50Z" fill="#85A2BE"/>
</svg>
