<svg width="50" height="50" viewBox="0 0 50 50" fill="none" xmlns="http://www.w3.org/2000/svg">
<g clip-path="url(#clip0)">
<path d="M25 50C38.8071 50 50 38.8071 50 25C50 11.1929 38.8071 0 25 0C11.1929 0 0 11.1929 0 25C0 38.8071 11.1929 50 25 50Z" fill="#85A2BE"/>
<path d="M39.6082 25.5965C39.6082 27.656 39.6082 29.7269 39.6082 31.7864C39.6082 35.2831 37.9108 37.7047 34.8668 39.2776C33.622 39.9227 32.2754 40.2056 30.8722 40.2056C26.9002 40.2056 22.917 40.2735 18.945 40.1829C15.7539 40.115 13.1851 38.7118 11.4651 35.962C10.7522 34.8078 10.4014 33.5404 10.3901 32.1938C10.3901 27.8371 10.3674 23.4691 10.3901 19.1124C10.4127 16.1249 11.8725 13.9183 14.3507 12.3567C15.8218 11.4401 17.4513 11.0214 19.1827 11.0101C23.0528 11.0101 26.9116 10.9874 30.793 11.0101C33.7804 11.0327 36.2586 12.1982 38.0919 14.5973C39.099 15.9212 39.5969 17.4602 39.5969 19.135C39.6082 21.2737 39.6082 23.4351 39.6082 25.5965ZM37.4355 25.6191C37.4355 23.4578 37.4355 21.2737 37.4355 19.1124C37.4355 17.9355 37.0847 16.8605 36.3944 15.9326C35.0478 14.1107 33.1807 13.2167 30.9514 13.1941C27.0247 13.1488 23.098 13.1827 19.1713 13.1827C17.9492 13.1827 16.795 13.4656 15.7426 14.0767C13.7057 15.2536 12.5741 16.9736 12.5854 19.3726C12.5967 23.5935 12.5854 27.8371 12.5854 32.0693C12.5854 33.2575 12.9362 34.3438 13.6378 35.2831C14.9844 37.105 16.8515 37.9876 19.0808 38.0102C23.0301 38.0555 26.9794 38.0216 30.9174 38.0216C31.8114 38.0216 32.6828 37.8292 33.5201 37.4897C35.7381 36.5957 37.5147 34.5249 37.4468 31.7638C37.3903 29.7155 37.4355 27.6673 37.4355 25.6191Z" fill="white"/>
<path d="M24.9991 31.8316C21.1856 31.8203 18.1416 28.7763 18.1529 24.9854C18.1642 21.285 21.2648 18.275 25.0444 18.2863C28.824 18.2976 31.8906 21.3529 31.8793 25.0986C31.8793 28.8216 28.8013 31.843 24.9991 31.8316ZM25.0557 20.459C22.4643 20.459 20.3708 22.5072 20.3482 25.042C20.3482 27.5655 22.4417 29.6363 24.9991 29.6476C27.5905 29.6476 29.7066 27.5994 29.7179 25.0759C29.7179 22.5411 27.6245 20.459 25.0557 20.459Z" fill="white"/>
<path d="M34.1312 17.7318C34.1312 18.5579 33.4749 19.2369 32.6714 19.2255C31.8793 19.2255 31.2343 18.5353 31.2456 17.7092C31.2456 16.8944 31.9019 16.2268 32.6941 16.2268C33.4862 16.2268 34.1312 16.9057 34.1312 17.7318Z" fill="white"/>
</g>
<defs>
<clipPath id="clip0">
<rect width="50" height="50" fill="white"/>
</clipPath>
</defs>
</svg>
