<svg width="50" height="50" viewBox="0 0 50 50" fill="none" xmlns="http://www.w3.org/2000/svg">
<path fill-rule="evenodd" clip-rule="evenodd" d="M25 50C38.8071 50 50 38.8071 50 25C50 11.1929 38.8071 0 25 0C11.1929 0 0 11.1929 0 25C0 38.8071 11.1929 50 25 50Z" fill="#85A2BE"/>
<path fill-rule="evenodd" clip-rule="evenodd" d="M18.2359 36.5193V21.2703H13.5228V36.5193H18.2359ZM18.2359 15.8652C18.2078 14.5006 17.2984 13.4615 15.8209 13.4615C14.343 13.4615 13.3774 14.5006 13.3774 15.8652C13.3774 17.2002 14.315 18.2692 15.7644 18.2692H15.7924C17.2984 18.2692 18.2359 17.2002 18.2359 15.8652ZM25.925 36.5193V27.8312C25.925 27.3662 25.9586 26.9012 26.0954 26.5697C26.4692 25.6402 27.32 24.6781 28.7485 24.6781C30.6199 24.6781 31.7936 25.7401 31.7936 27.8312V36.5193H36.5385V27.5987C36.5385 22.82 33.9875 20.5964 30.5849 20.5964C27.7951 20.5964 26.5705 22.1561 25.8905 23.2178L25.9246 21.1783H21.1879C21.256 22.6381 21.1879 36.5193 21.1879 36.5193H25.925Z" fill="white"/>
</svg>
